# Blender v2.83.3 OBJ File: ''
# www.blender.org
mtllib Low_Building_1.mtl
o Cube.002_Cube.002_Cube.002_Cube.007
v 5.424318 4.782418 -3.840185
v 5.424318 5.048833 -3.840185
v 5.424319 5.048833 6.196989
v 5.424319 4.782417 6.196989
v 1.040520 -0.209473 6.196992
v 5.424319 -0.209473 6.196992
v 5.424319 -0.209473 9.691945
v 1.040521 -0.209473 9.691945
v 0.229871 4.769110 -4.848471
v 0.229872 4.769110 5.428087
v -0.040344 4.764674 5.171785
v -0.040345 4.764674 -5.184568
v 1.040520 -0.209473 -3.840182
v 5.424318 -0.209473 -3.840184
v 5.424319 8.097550 6.196990
v 5.424318 8.097550 -3.840184
v 5.424318 8.444334 -3.840184
v 5.424319 8.444334 6.196990
v 1.040519 4.782418 -10.110159
v 1.040519 5.048833 -10.110159
v 5.424317 5.048833 -10.110159
v 5.424317 4.782418 -10.110159
v 1.040519 2.286472 -10.110158
v 1.040519 -0.209473 -10.110158
v -2.973168 -0.209473 -10.110158
v -2.973168 2.286472 -10.110158
v 5.424317 2.286473 -8.542666
v 5.424317 -0.209473 -8.542665
v 5.424317 -0.209473 -10.110158
v 5.424317 2.286472 -10.110160
v 1.040519 -0.209473 -8.542665
v -2.973168 4.782418 -9.431063
v -2.973168 5.048833 -9.431063
v -2.973168 5.048833 -10.110157
v -2.973168 4.782418 -10.110157
v 1.040520 5.048833 -3.840183
v -2.973167 5.048833 -3.840183
v -2.973167 5.048833 0.460062
v 1.040520 5.048833 0.460062
v 1.040520 -0.209473 -5.407676
v -2.973167 -0.209473 -3.840182
v -2.973167 -0.209473 -4.519275
v 1.040521 8.097550 9.691946
v 1.040521 8.444334 9.691946
v 0.149835 8.444334 9.691946
v 0.149835 8.097550 9.691946
v 5.424319 4.782417 9.691946
v 5.424319 5.048833 9.691946
v 1.040521 5.048833 9.691946
v 1.040521 4.782417 9.691946
v -2.973167 8.097550 -3.840183
v 1.040520 8.097550 -3.840184
v 0.149833 8.097550 -3.840184
v -3.863853 8.097550 -3.840183
v -1.175898 -0.209473 9.691945
v -1.175899 -0.209473 6.196992
v -1.175899 2.100061 6.424341
v -1.175899 0.361312 6.424340
v -1.026082 0.361312 6.424340
v -1.026082 2.100061 6.424341
v -1.952398 4.769110 5.428087
v -1.952398 4.769111 10.035494
v -2.211232 4.764675 10.150011
v -2.211232 4.764674 5.171785
v 1.040520 2.286472 6.196992
v -1.175899 2.286472 6.196992
v 5.424317 8.097550 -8.542665
v 5.424317 8.097550 -10.110159
v 5.424317 8.444334 -10.110159
v 5.424317 8.444334 -8.542665
v 5.424319 8.097550 9.691946
v 5.424319 8.444334 9.691946
v 1.040520 8.097550 6.196990
v -1.175899 8.097550 6.196990
v -2.066585 8.097550 6.196990
v 0.149834 8.097550 6.196990
v 1.040520 8.444334 -3.840184
v -2.973167 8.444334 -3.840184
v -3.863853 8.444334 -3.840183
v 0.149833 8.444334 -3.840184
v -2.973168 8.097550 -10.110159
v 1.040519 8.097550 -10.110159
v 1.040520 5.048833 6.196989
v -1.175898 5.048833 9.691946
v -1.175898 8.097550 9.691946
v 5.424317 5.048833 -8.542665
v -1.175899 5.443987 6.646193
v -1.175898 5.443988 9.242746
v -1.071475 5.443988 9.242746
v -1.071475 5.443987 6.646193
v -2.973167 5.048833 -4.519274
v -2.973167 8.097550 -5.407676
v -1.175899 5.048833 6.196993
v -2.066584 8.097550 9.691946
v -2.066584 8.444334 9.691946
v -2.066585 8.444334 6.196990
v -3.863854 8.097550 -10.110159
v 0.149833 8.097550 -10.110159
v -1.175898 8.444334 9.691946
v -1.175899 8.444334 6.196990
v 1.040520 8.444334 6.196990
v 0.149834 8.444334 6.196990
v -2.973168 8.444334 -10.110159
v 1.040519 8.444334 -10.110159
v 0.149833 8.444334 -10.110159
v -3.863854 8.444334 -10.110159
v -2.973168 5.048833 -6.975168
v -2.973168 8.097550 -6.975170
v -2.973168 8.097550 -8.542665
v 5.424317 5.048833 -5.407677
v 5.424317 5.048833 -6.975170
v 5.424317 8.097550 -6.975170
v 5.424317 8.097550 -5.407676
v 5.424317 8.444334 -6.975170
v 5.424317 8.444334 -5.407676
v 1.040520 -0.209472 -6.975169
v -2.973168 -0.209472 -6.975169
v -2.973168 -0.209473 -9.431064
v -2.973168 2.286473 -9.431064
v -2.443398 -0.209473 -9.431064
v -2.443398 2.286473 -9.431064
v 5.424317 -0.209473 -5.407676
v 5.424317 -0.209472 -6.975169
v 5.424317 2.286472 -5.407677
v 5.424317 2.286472 -6.975171
v -2.487606 5.048833 -9.431063
v -2.487606 5.048833 -6.975168
v 5.424318 2.286473 -3.840183
v -2.973167 4.782418 -3.840183
v -2.973167 4.782418 -4.519274
v -2.443398 4.782418 -4.519274
v -2.487606 5.048833 -4.519274
v -2.443398 4.782417 -6.975168
v -2.443398 4.782418 -9.431063
v -2.443398 -0.209473 -4.519275
v -2.443398 -0.209472 -6.975169
v 1.040520 4.782417 0.460062
v -2.973167 4.782417 0.460062
v 1.040520 4.782418 -3.840183
v -2.973167 3.841949 -0.332846
v -2.973167 3.841950 -3.047277
v -2.108202 3.841950 -3.047277
v -2.108202 3.841949 -0.332846
v 1.040520 -0.209473 0.460061
v -2.973167 -0.209473 0.460061
v 1.040520 2.286473 -3.840183
v 1.040520 2.286472 0.460062
v -2.973167 2.286472 0.460062
v -2.973167 2.286473 -3.840182
v -2.973167 2.286472 -4.519274
v 5.424317 4.782417 -5.407677
v 5.424317 4.782417 -6.975170
v 5.424317 4.782418 -8.542665
v -1.952398 5.062140 5.428087
v 0.229872 5.062140 5.428087
v 0.232098 5.413462 5.430613
v -1.950173 5.413462 5.430616
v 1.040521 2.286473 9.691945
v -1.175898 4.782417 9.691946
v -1.175898 2.286473 9.691945
v 1.151229 4.769111 10.035494
v 1.188132 4.764675 10.150011
v 5.424319 2.286472 6.196992
v 5.424319 2.286473 9.691945
v 1.040520 4.782417 6.196989
v -0.040344 5.066576 5.171785
v -0.040345 5.066576 -5.184568
v 1.188132 5.066577 10.150011
v -2.211232 5.066577 10.150011
v -2.211232 5.066576 5.171785
v 1.151229 5.062141 10.035494
v -1.952398 5.062141 10.035494
v -1.950172 5.413463 10.038023
v 0.229871 5.062140 -4.848471
v -0.038119 5.417898 -5.182039
v 0.232097 5.413462 -4.845943
v -2.973167 1.885683 -3.047276
v -2.973167 1.885683 -0.332844
v -2.973167 -0.070584 -0.332845
v -2.973167 -0.070584 -3.047276
v -2.108202 1.885683 -3.047276
v -2.108202 -0.070584 -3.047276
v -2.108202 -0.070584 -0.332845
v -2.108202 1.885683 -0.332844
v -1.175899 4.782417 6.196993
v -1.175898 2.703704 9.464597
v -1.175898 4.442452 9.464598
v -1.026082 4.442452 9.464598
v -1.026082 2.703704 9.464597
v -1.175898 0.361313 9.464597
v -1.175898 2.100062 9.464597
v -1.175899 2.703704 6.424341
v -1.175899 4.442452 6.424341
v -1.026082 4.442452 6.424341
v -1.026082 2.100062 9.464597
v -1.026082 0.361313 9.464597
v -1.026082 2.703704 6.424341
v -1.175898 7.702397 9.242746
v -1.175899 7.702397 6.646193
v -1.071475 7.702397 9.242746
v -1.071475 7.702397 6.646193
v -1.693565 5.057704 5.684389
v -1.693565 5.057705 9.920980
v 0.500088 4.773546 -4.512375
v 0.500088 5.057705 -4.512375
v 1.114326 5.057705 9.920977
v 0.500088 5.057704 5.684385
v -1.693565 4.773545 5.684389
v 0.500088 4.773545 5.684389
v 1.114326 4.773546 9.920977
v -1.693565 4.773546 9.920980
v -0.038118 5.417897 5.174311
v -2.209006 5.417897 5.174314
v -2.209006 5.417898 10.152540
v 1.040519 8.444334 -8.542665
v -2.973168 8.444334 -8.542665
v -3.863853 8.097550 -5.407676
v -3.863853 8.444334 -5.407676
v -3.863854 8.444334 -8.542665
v -3.863853 8.097550 -6.975170
v -3.863854 8.097550 -8.542665
v -2.973167 8.444334 -5.407676
v -2.973168 8.444334 -6.975170
v -3.863853 8.444334 -6.975170
v 1.040520 8.444334 -5.407676
v 1.040520 8.444334 -6.975170
v -2.443398 2.286472 -4.519274
v -2.443398 2.286472 -6.975169
vt 0.612334 0.000000
vt 0.625000 0.000000
vt 0.625000 0.250000
vt 0.612334 0.250000
vt 0.375000 0.500000
vt 0.125000 0.500000
vt 0.125000 0.500000
vt 0.375000 0.500000
vt 0.612334 0.750000
vt 0.612334 0.500000
vt 0.612334 0.500000
vt 0.612334 0.750000
vt 0.375000 0.750000
vt 0.125000 0.750000
vt 0.625000 0.250000
vt 0.625000 0.000000
vt 0.625000 0.000000
vt 0.625000 0.250000
vt 0.612334 0.750000
vt 0.625000 0.750000
vt 0.625000 1.000000
vt 0.612334 1.000000
vt 0.493667 0.750000
vt 0.375000 0.750000
vt 0.375000 0.750000
vt 0.493667 0.750000
vt 0.493667 0.000000
vt 0.375000 0.000000
vt 0.375000 0.000000
vt 0.493667 0.000000
vt 0.125000 0.750000
vt 0.375000 0.750000
vt 0.125000 0.750000
vt 0.612334 0.750000
vt 0.625000 0.750000
vt 0.625000 0.750000
vt 0.612334 0.750000
vt 0.625000 0.750000
vt 0.625000 0.750000
vt 0.625000 0.750000
vt 0.625000 0.750000
vt 0.375000 0.750000
vt 0.375000 0.750000
vt 0.375000 0.750000
vt 0.625000 0.500000
vt 0.625000 0.500000
vt 0.625000 0.500000
vt 0.625000 0.500000
vt 0.612334 0.250000
vt 0.625000 0.250000
vt 0.625000 0.500000
vt 0.612334 0.500000
vt 0.625000 0.750000
vt 0.625000 0.750000
vt 0.625000 0.750000
vt 0.625000 0.750000
vt 0.375000 0.500000
vt 0.375000 0.500000
vt 0.489017 0.500000
vt 0.379650 0.500000
vt 0.379650 0.500000
vt 0.489017 0.500000
vt 0.612334 0.500000
vt 0.612334 0.500000
vt 0.612334 0.500000
vt 0.612334 0.500000
vt 0.493667 0.500000
vt 0.493667 0.500000
vt 0.625000 0.000000
vt 0.625000 0.000000
vt 0.625000 0.000000
vt 0.625000 0.000000
vt 0.625000 0.250000
vt 0.625000 0.250000
vt 0.625000 0.500000
vt 0.625000 0.500000
vt 0.625000 0.500000
vt 0.625000 0.500000
vt 0.625000 0.750000
vt 0.625000 0.750000
vt 0.625000 0.750000
vt 0.625000 0.750000
vt 0.625000 0.750000
vt 0.625000 0.750000
vt 0.625000 0.500000
vt 0.625000 0.500000
vt 0.625000 0.500000
vt 0.625000 0.000000
vt 0.625000 0.000000
vt 0.625000 1.000000
vt 0.625000 0.500000
vt 0.625000 0.500000
vt 0.625000 0.500000
vt 0.625000 0.500000
vt 0.625000 0.750000
vt 0.625000 0.750000
vt 0.625000 0.500000
vt 0.625000 0.500000
vt 0.625000 0.500000
vt 0.625000 0.500000
vt 0.625000 0.750000
vt 0.625000 0.750000
vt 0.625000 0.500000
vt 0.625000 0.500000
vt 0.625000 0.500000
vt 0.625000 0.500000
vt 0.625000 0.750000
vt 0.625000 0.750000
vt 0.625000 0.750000
vt 0.625000 0.750000
vt 0.625000 0.750000
vt 0.625000 0.750000
vt 0.625000 0.750000
vt 0.625000 0.000000
vt 0.625000 0.000000
vt 0.625000 0.000000
vt 0.625000 0.000000
vt 0.625000 0.000000
vt 0.625000 0.000000
vt 0.375000 0.750000
vt 0.375000 0.750000
vt 0.375000 0.750000
vt 0.493667 0.750000
vt 0.375000 0.750000
vt 0.493667 0.750000
vt 0.125000 0.750000
vt 0.125000 0.750000
vt 0.493667 0.000000
vt 0.375000 0.000000
vt 0.375000 0.000000
vt 0.493667 0.000000
vt 0.625000 0.750000
vt 0.625000 0.750000
vt 0.493667 0.000000
vt 0.375000 0.000000
vt 0.612334 0.750000
vt 0.612334 0.750000
vt 0.612334 0.750000
vt 0.625000 0.750000
vt 0.612334 0.750000
vt 0.612334 0.750000
vt 0.375000 0.750000
vt 0.375000 0.750000
vt 0.612334 0.750000
vt 0.612334 0.750000
vt 0.612334 0.750000
vt 0.606902 0.750000
vt 0.606902 0.750000
vt 0.606902 0.750000
vt 0.606902 0.750000
vt 0.375000 0.750000
vt 0.375000 0.750000
vt 0.493667 0.750000
vt 0.493667 0.750000
vt 0.493667 0.750000
vt 0.493667 0.750000
vt 0.493667 0.750000
vt 0.612334 0.000000
vt 0.612334 0.000000
vt 0.612334 0.000000
vt 0.625000 0.500000
vt 0.625000 0.500000
vt 0.625000 0.500000
vt 0.625000 0.500000
vt 0.493667 0.500000
vt 0.612334 0.500000
vt 0.493667 0.500000
vt 0.612334 0.500000
vt 0.612334 0.500000
vt 0.493667 0.250000
vt 0.493667 0.250000
vt 0.612334 0.000000
vt 0.493667 1.000000
vt 0.612334 0.500000
vt 0.625000 0.500000
vt 0.625000 0.750000
vt 0.625000 0.500000
vt 0.625000 0.500000
vt 0.625000 0.500000
vt 0.625000 0.500000
vt 0.625000 0.500000
vt 0.625000 0.500000
vt 0.625000 0.750000
vt 0.625000 0.750000
vt 0.625000 0.750000
vt 0.493667 0.750000
vt 0.493667 0.750000
vt 0.380432 0.750000
vt 0.380432 0.750000
vt 0.493667 0.750000
vt 0.380432 0.750000
vt 0.380432 0.750000
vt 0.493667 0.750000
vt 0.375000 0.250000
vt 0.375000 1.000000
vt 0.375000 0.250000
vt 0.612334 0.500000
vt 0.498316 0.500000
vt 0.607684 0.500000
vt 0.607684 0.500000
vt 0.498316 0.500000
vt 0.379650 0.500000
vt 0.489017 0.500000
vt 0.498316 0.500000
vt 0.607684 0.500000
vt 0.607684 0.500000
vt 0.489017 0.500000
vt 0.379650 0.500000
vt 0.498316 0.500000
vt 0.625000 0.500000
vt 0.625000 0.500000
vt 0.625000 0.500000
vt 0.625000 0.500000
vt 0.625000 0.500000
vt 0.625000 0.500000
vt 0.612334 0.750000
vt 0.625000 0.750000
vt 0.625000 0.500000
vt 0.625000 0.500000
vt 0.612334 0.500000
vt 0.612334 0.500000
vt 0.612334 0.500000
vt 0.612334 0.500000
vt 0.625000 0.500000
vt 0.625000 0.500000
vt 0.625000 0.500000
vt 0.625000 1.000000
vt 0.625000 0.750000
vt 0.875000 0.750000
vt 0.875000 0.750000
vt 0.875000 0.500000
vt 0.875000 0.750000
vt 0.625000 0.750000
vt 0.875000 0.500000
vt 0.625000 0.750000
vt 0.625000 0.750000
vt 0.625000 0.750000
vt 0.625000 0.750000
vt 0.625000 0.750000
vt 0.625000 0.750000
vt 0.625000 0.750000
vt 0.625000 0.750000
vt 0.625000 0.750000
vt 0.625000 0.750000
vt 0.875000 0.750000
vt 0.875000 0.750000
vt 0.493667 0.750000
vt 0.493667 0.750000
vn 1.0000 0.0000 -0.0000
vn 0.0000 -1.0000 -0.0000
vn 0.0164 -0.9999 0.0000
vn -0.0000 0.0000 -1.0000
vn -1.0000 0.0000 0.0000
vn 0.0000 1.0000 -0.0000
vn 0.0000 0.0000 1.0000
vn 0.0000 0.4068 0.9135
vn 0.0171 -0.9999 0.0000
vn -0.9865 -0.1637 0.0000
vn 0.0000 -0.0072 1.0000
vn -0.0000 -0.9993 -0.0387
vn -1.0000 0.0032 0.0000
vn -0.0000 0.0036 -1.0000
vn 0.9518 0.0000 -0.3067
vn 0.0000 -0.9999 0.0173
vn 1.0000 -0.0063 -0.0000
vn -0.0000 0.9993 -0.0387
vn 0.7794 -0.0001 -0.6266
vn 0.7794 0.0000 -0.6266
vn 0.7794 -0.0002 -0.6266
vn 0.7793 -0.0004 -0.6266
vn 0.0171 0.9999 0.0000
vn 0.0164 0.9999 0.0000
vn 0.0000 0.9999 0.0173
vn 0.4045 -0.0091 0.9145
vn -1.0000 0.0063 0.0000
vn -0.0000 0.0072 -1.0000
usemtl Material.027
s 1
f 1/1/1 2/2/1 3/3/1 4/4/1
f 5/5/2 6/6/2 7/7/2 8/8/2
f 9/9/3 10/10/3 11/11/3 12/12/3
f 6/6/2 5/5/2 13/13/2 14/14/2
f 15/15/1 16/16/1 17/17/1 18/18/1
f 19/19/4 20/20/4 21/21/4 22/22/4
f 23/23/4 24/24/4 25/25/4 26/26/4
f 27/27/1 28/28/1 29/29/1 30/30/1
f 28/31/2 31/32/2 24/24/2 29/33/2
f 32/34/5 33/35/5 34/36/5 35/37/5
f 36/38/6 37/39/6 38/40/6 39/41/6
f 40/42/2 13/13/2 41/43/2 42/44/2
f 43/45/7 44/46/7 45/47/7 46/48/7
f 47/49/7 48/50/7 49/51/7 50/52/7
f 51/53/8 52/54/8 53/55/8 54/56/8
f 4/4/1 3/3/1 48/50/1 47/49/1
f 5/5/2 8/8/2 55/57/2 56/58/2
f 57/59/7 58/60/7 59/61/7 60/62/7
f 61/63/9 62/64/9 63/65/9 64/66/9
f 65/67/4 5/5/4 56/58/4 66/68/4
f 67/69/1 68/70/1 69/71/1 70/72/1
f 43/45/7 71/73/7 72/74/7 44/46/7
f 71/73/1 15/15/1 18/18/1 72/74/1
f 73/75/4 74/76/4 75/77/4 76/78/4
f 77/79/6 78/80/6 79/81/6 80/82/6
f 20/20/4 34/36/4 81/83/4 82/84/4
f 36/38/5 83/85/5 73/75/5 52/54/5
f 84/86/7 49/51/7 43/45/7 85/87/7
f 48/50/1 3/3/1 15/15/1 71/73/1
f 49/51/7 48/50/7 71/73/7 43/45/7
f 86/88/1 21/89/1 68/70/1 67/69/1
f 37/39/7 36/38/7 52/54/7 51/53/7
f 21/21/4 20/20/4 82/84/4 68/90/4
f 87/91/6 88/92/6 89/93/6 90/94/6
f 91/95/5 37/39/5 51/53/5 92/96/5
f 3/3/1 2/2/1 16/16/1 15/15/1
f 83/85/4 93/97/4 74/76/4 73/75/4
f 75/77/5 94/98/5 95/99/5 96/100/5
f 94/98/7 46/48/7 45/47/7 95/99/7
f 82/84/7 81/83/7 97/101/7 98/102/7
f 44/46/4 99/103/4 95/99/4 45/47/4
f 52/54/2 73/75/2 76/78/2 53/55/2
f 100/104/7 101/105/7 102/106/7 96/100/7
f 103/107/4 104/108/4 105/109/4 106/110/4
f 85/87/7 43/45/7 46/48/7 94/98/7
f 33/35/5 107/111/5 108/112/5 109/113/5
f 110/114/1 111/115/1 112/116/1 113/117/1
f 113/117/1 112/116/1 114/118/1 115/119/1
f 31/32/2 116/120/2 117/121/2 118/122/2
f 119/123/7 118/122/7 120/124/7 121/125/7
f 122/126/2 40/42/2 116/120/2 123/127/2
f 124/128/1 122/129/1 123/130/1 125/131/1
f 24/24/2 31/32/2 118/122/2 25/25/2
f 34/36/5 33/35/5 109/113/5 81/83/5
f 111/115/1 86/88/1 67/69/1 112/116/1
f 112/116/1 67/69/1 70/72/1 114/118/1
f 107/111/2 33/35/2 126/132/2 127/133/2
f 123/127/2 116/120/2 31/32/2 28/31/2
f 125/131/1 123/130/1 28/28/1 27/27/1
f 128/134/1 14/135/1 122/129/1 124/128/1
f 14/14/2 13/13/2 40/42/2 122/126/2
f 129/136/5 37/39/5 91/95/5 130/137/5
f 16/16/1 113/117/1 115/119/1 17/17/1
f 2/2/1 110/114/1 113/117/1 16/16/1
f 107/111/5 91/95/5 92/96/5 108/112/5
f 116/120/2 40/42/2 42/44/2 117/121/2
f 131/138/10 132/139/10 127/133/10 133/140/10
f 133/140/10 127/133/10 126/132/10 134/141/10
f 117/121/6 42/44/6 135/142/6 136/143/6
f 118/122/6 117/121/6 136/143/6 120/124/6
f 130/137/4 91/95/4 132/139/4 131/138/4
f 91/95/2 107/111/2 127/133/2 132/139/2
f 137/144/7 39/41/7 38/40/7 138/145/7
f 139/146/1 36/38/1 39/41/1 137/144/1
f 140/147/2 141/148/2 142/149/2 143/150/2
f 41/43/2 13/13/2 144/151/2 145/152/2
f 37/39/5 129/136/5 138/145/5 38/40/5
f 146/153/1 139/146/1 137/144/1 147/154/1
f 147/154/7 137/144/7 138/145/7 148/155/7
f 149/156/5 129/136/5 130/137/5 150/157/5
f 2/2/1 1/1/1 151/158/1 110/114/1
f 111/115/1 152/159/1 153/160/1 86/88/1
f 110/114/1 151/158/1 152/159/1 111/115/1
f 33/35/7 32/34/7 134/141/7 126/132/7
f 154/161/11 155/162/11 156/163/11 157/164/11
f 158/165/7 50/52/7 159/166/7 160/167/7
f 62/64/12 161/168/12 162/169/12 63/65/12
f 163/170/1 4/4/1 47/49/1 164/171/1
f 164/171/7 47/49/7 50/52/7 158/165/7
f 119/123/5 32/34/5 35/37/5 26/26/5
f 86/88/1 153/160/1 22/172/1 21/89/1
f 20/20/4 19/19/4 35/37/4 34/36/4
f 23/23/4 19/19/4 22/22/4 30/173/4
f 65/67/5 165/174/5 139/146/5 146/153/5
f 128/134/1 1/1/1 4/4/1 163/170/1
f 11/11/5 166/175/13 167/176/13 12/12/5
f 162/169/7 168/177/7 169/178/7 63/65/7
f 166/175/14 11/11/4 64/66/4 170/179/14
f 170/179/13 64/66/5 63/65/5 169/178/13
f 161/168/15 171/180/15 168/177/15 162/169/15
f 10/10/16 61/63/16 64/66/16 11/11/16
f 172/181/17 154/161/17 157/164/17 173/182/17
f 171/180/18 172/181/18 169/178/18 168/177/18
f 174/183/19 9/9/20 12/12/20 167/176/21
f 174/183/19 167/176/21 175/184/22 176/185/22
f 177/186/5 141/148/5 129/136/5 149/156/5
f 178/187/5 179/188/5 145/152/5 148/155/5
f 179/188/5 180/189/5 41/43/5 145/152/5
f 141/148/5 140/147/5 138/145/5 129/136/5
f 181/190/5 182/191/5 183/192/5 184/193/5
f 178/187/4 140/147/4 143/150/4 184/193/4
f 180/189/6 179/188/6 183/192/6 182/191/6
f 177/186/7 180/189/7 182/191/7 181/190/7
f 141/148/7 177/186/7 181/190/7 142/149/7
f 179/188/4 178/187/4 184/193/4 183/192/4
f 142/149/5 181/190/5 184/193/5 143/150/5
f 140/147/5 178/187/5 148/155/5 138/145/5
f 180/189/5 177/186/5 149/156/5 41/43/5
f 14/135/1 128/134/1 163/170/1 6/194/1
f 5/5/5 65/67/5 146/153/5 13/13/5
f 24/24/4 23/23/4 30/173/4 29/195/4
f 118/122/5 119/123/5 26/26/5 25/25/5
f 7/196/7 164/171/7 158/165/7 8/8/7
f 6/194/1 163/170/1 164/171/1 7/196/1
f 8/8/7 158/165/7 160/167/7 55/57/7
f 41/43/5 149/156/5 150/157/5 42/44/5
f 144/151/7 147/154/7 148/155/7 145/152/7
f 13/13/1 146/153/1 147/154/1 144/151/1
f 1/1/1 128/134/1 124/128/1 151/158/1
f 152/159/1 125/131/1 27/27/1 153/160/1
f 151/158/1 124/128/1 125/131/1 152/159/1
f 32/34/7 119/123/7 121/125/7 134/141/7
f 165/174/4 65/67/4 66/68/4 185/197/4
f 186/198/4 187/199/4 188/200/4 189/201/4
f 153/160/1 27/27/1 30/30/1 22/172/1
f 19/19/4 23/23/4 26/26/4 35/37/4
f 66/68/5 56/58/5 58/60/5 57/59/5
f 56/58/5 55/57/5 190/202/5 58/60/5
f 55/57/5 160/167/5 191/203/5 190/202/5
f 160/167/5 66/68/5 57/59/5 191/203/5
f 185/197/5 66/68/5 192/204/5 193/205/5
f 66/68/5 160/167/5 186/198/5 192/204/5
f 160/167/5 159/166/5 187/199/5 186/198/5
f 159/166/5 185/197/5 193/205/5 187/199/5
f 187/199/2 193/205/2 194/206/2 188/200/2
f 190/202/4 191/203/4 195/207/4 196/208/4
f 191/203/2 57/59/2 60/62/2 195/207/2
f 192/204/6 186/198/6 189/201/6 197/209/6
f 193/205/7 192/204/7 197/209/7 194/206/7
f 58/60/6 190/202/6 196/208/6 59/61/6
f 198/210/5 88/92/5 84/86/5 85/87/5
f 87/91/5 199/211/5 74/76/5 93/97/5
f 88/92/5 87/91/5 93/97/5 84/86/5
f 199/211/5 198/210/5 85/87/5 74/76/5
f 88/92/4 198/210/4 200/212/4 89/93/4
f 198/210/2 199/211/2 201/213/2 200/212/2
f 199/211/7 87/91/7 90/94/7 201/213/7
f 84/86/23 93/97/23 202/214/23 203/215/23
f 36/38/20 139/146/20 204/216/20 205/217/20
f 49/51/18 84/86/18 203/215/18 206/218/18
f 83/85/24 36/38/24 205/217/24 207/219/24
f 165/174/16 185/197/16 208/220/16 209/221/16
f 50/52/15 49/51/15 206/218/15 210/222/15
f 159/166/12 50/52/12 210/222/12 211/223/12
f 93/97/25 83/85/25 207/219/25 202/214/25
f 185/197/9 159/166/9 211/223/9 208/220/9
f 139/146/3 165/174/3 209/221/3 204/216/3
f 203/215/23 202/214/23 154/161/23 172/181/23
f 205/217/20 204/216/20 9/9/20 174/183/19
f 206/218/18 203/215/18 172/181/18 171/180/18
f 207/219/24 205/217/24 174/183/24 155/162/24
f 209/221/16 208/220/16 61/63/16 10/10/16
f 210/222/15 206/218/15 171/180/15 161/168/15
f 211/223/12 210/222/12 161/168/12 62/64/12
f 202/214/25 207/219/25 155/162/25 154/161/25
f 208/220/9 211/223/9 62/64/9 61/63/9
f 204/216/3 209/221/3 10/10/3 9/9/3
f 157/164/25 156/163/25 212/224/25 213/225/25
f 156/163/24 176/185/24 175/184/24 212/224/24
f 173/182/23 157/164/23 213/225/23 214/226/23
f 155/162/17 174/183/17 176/185/17 156/163/17
f 169/178/26 172/181/26 173/182/26 214/226/26
f 167/176/13 166/175/13 212/224/27 175/184/27
f 166/175/14 170/179/14 213/225/28 212/224/28
f 170/179/13 169/178/13 214/226/27 213/225/27
usemtl Fence_metal.001
f 99/103/6 100/104/6 96/100/6 95/99/6
f 68/90/4 82/84/4 104/108/4 69/227/4
f 215/228/6 70/229/6 69/230/6 104/108/6
f 101/105/6 18/231/6 17/232/6 77/79/6
f 215/228/6 104/108/6 103/107/6 216/233/6
f 18/231/6 101/105/6 44/46/6 72/234/6
f 44/46/6 101/105/6 100/104/6 99/103/6
f 104/108/4 82/84/4 98/102/4 105/109/4
f 101/105/6 77/79/6 80/82/6 102/106/6
f 76/78/4 75/77/4 96/100/4 102/106/4
f 217/235/5 54/56/5 79/81/5 218/236/5
f 54/56/7 53/55/7 80/82/7 79/81/7
f 53/55/5 76/78/5 102/106/5 80/82/5
f 98/102/4 97/101/4 106/110/4 105/109/4
f 74/76/2 85/87/2 94/98/2 75/77/2
f 216/233/6 103/107/6 106/110/6 219/237/6
f 92/96/2 51/53/2 54/56/2 217/235/2
f 109/113/2 108/112/2 220/238/2 221/239/2
f 222/240/6 223/241/6 224/242/6 218/236/6
f 221/239/5 220/238/5 224/242/5 219/237/5
f 225/243/6 226/244/6 223/241/6 222/240/6
f 225/243/6 115/245/6 114/246/6 226/244/6
f 97/101/5 221/239/5 219/237/5 106/110/5
f 81/83/2 109/113/2 221/239/2 97/101/2
f 223/241/6 216/233/6 219/237/6 224/242/6
f 226/244/6 215/228/6 216/233/6 223/241/6
f 226/244/6 114/246/6 70/229/6 215/228/6
f 77/79/6 17/232/6 115/245/6 225/243/6
f 77/79/6 225/243/6 222/240/6 78/80/6
f 78/80/6 222/240/6 218/236/6 79/81/6
f 108/112/2 92/96/2 217/235/2 220/238/2
f 220/238/5 217/235/5 218/236/5 224/242/5
f 150/157/4 130/137/4 131/138/4 227/247/4
f 228/248/5 133/140/5 134/141/5 121/125/5
f 227/247/5 131/138/5 133/140/5 228/248/5
f 135/142/5 227/247/5 228/248/5 136/143/5
f 136/143/5 228/248/5 121/125/5 120/124/5
f 42/44/4 150/157/4 227/247/4 135/142/4
usemtl Material.028
f 60/62/5 59/61/5 196/208/5 195/207/5
f 194/206/5 197/209/5 189/201/5 188/200/5
f 90/94/5 89/93/5 200/212/5 201/213/5
